<svg width="24" height="24" viewBox="0 0 24 24" fill="none" xmlns="http://www.w3.org/2000/svg">
<path fill-rule="evenodd" clip-rule="evenodd" d="M8.00091 2C7.20526 2 6.4422 2.31607 5.87959 2.87868C5.31698 3.44129 5.00091 4.20435 5.00091 5C5.00091 5.79565 5.31698 6.55871 5.87959 7.12132C6.4422 7.68393 7.20526 8 8.00091 8C8.79656 8 9.55962 7.68393 10.1222 7.12132C10.6848 6.55871 11.0009 5.79565 11.0009 5C11.0009 4.20435 10.6848 3.44129 10.1222 2.87868C9.55962 2.31607 8.79656 2 8.00091 2ZM7.00091 5C7.00091 4.73478 7.10627 4.48043 7.2938 4.29289C7.48134 4.10536 7.73569 4 8.00091 4C8.26613 4 8.52048 4.10536 8.70802 4.29289C8.89555 4.48043 9.00091 4.73478 9.00091 5C9.00091 5.26522 8.89555 5.51957 8.70802 5.70711C8.52048 5.89464 8.26613 6 8.00091 6C7.73569 6 7.48134 5.89464 7.2938 5.70711C7.10627 5.51957 7.00091 5.26522 7.00091 5ZM16.0009 2C15.2053 2 14.4422 2.31607 13.8796 2.87868C13.317 3.44129 13.0009 4.20435 13.0009 5C13.0009 5.79565 13.317 6.55871 13.8796 7.12132C14.4422 7.68393 15.2053 8 16.0009 8C16.7966 8 17.5596 7.68393 18.1222 7.12132C18.6848 6.55871 19.0009 5.79565 19.0009 5C19.0009 4.20435 18.6848 3.44129 18.1222 2.87868C17.5596 2.31607 16.7966 2 16.0009 2ZM15.0009 5C15.0009 4.73478 15.1063 4.48043 15.2938 4.29289C15.4813 4.10536 15.7357 4 16.0009 4C16.2661 4 16.5205 4.10536 16.708 4.29289C16.8956 4.48043 17.0009 4.73478 17.0009 5C17.0009 5.26522 16.8956 5.51957 16.708 5.70711C16.5205 5.89464 16.2661 6 16.0009 6C15.7357 6 15.4813 5.89464 15.2938 5.70711C15.1063 5.51957 15.0009 5.26522 15.0009 5ZM4.10391 11.181C4.07876 10.9042 4.11157 10.6252 4.20025 10.3618C4.28893 10.0985 4.43153 9.85643 4.61895 9.65122C4.80638 9.44601 5.03452 9.28212 5.28882 9.16999C5.54311 9.05787 5.81799 8.99997 6.09591 9H9.90591C10.1838 8.99997 10.4587 9.05787 10.713 9.16999C10.9673 9.28212 11.1954 9.44601 11.3829 9.65122C11.5703 9.85643 11.7129 10.0985 11.8016 10.3618C11.8903 10.6252 11.9231 10.9042 11.8979 11.181L10.9969 21.091C10.9742 21.3395 10.8595 21.5704 10.6752 21.7386C10.4909 21.9068 10.2504 22 10.0009 22H6.00091C5.75126 22 5.51064 21.9067 5.32634 21.7383C5.14203 21.5699 5.02738 21.3386 5.00491 21.09L4.10391 11.181ZM6.09591 11L6.91391 20H9.08791L9.90591 11H6.09591ZM14.8209 9C14.3586 9.00005 13.9105 9.16029 13.553 9.45346C13.1954 9.74663 12.9505 10.1546 12.8599 10.608L12.0199 14.804C11.9909 14.9491 11.9945 15.0988 12.0303 15.2424C12.0662 15.386 12.1335 15.5198 12.2273 15.6342C12.3212 15.7486 12.4392 15.8408 12.573 15.904C12.7068 15.9673 12.8529 16.0001 13.0009 16V21C13.0009 21.2652 13.1063 21.5196 13.2938 21.7071C13.4813 21.8946 13.7357 22 14.0009 22H18.0009C18.2661 22 18.5205 21.8946 18.708 21.7071C18.8956 21.5196 19.0009 21.2652 19.0009 21V16C19.1488 15.9999 19.2948 15.967 19.4285 15.9037C19.5621 15.8404 19.6801 15.7482 19.7738 15.6338C19.8675 15.5194 19.9347 15.3856 19.9705 15.2422C20.0064 15.0987 20.0099 14.949 19.9809 14.804L19.1429 10.608C19.0523 10.1544 18.8072 9.74633 18.4495 9.45314C18.0917 9.15995 17.6434 8.99982 17.1809 9H14.8209ZM15.0009 15C15.001 14.7721 14.9232 14.5509 14.7805 14.3733C14.6377 14.1956 14.4385 14.072 14.2159 14.023L14.8209 11H17.1809L17.7859 14.023C17.5633 14.072 17.3641 14.1956 17.2214 14.3733C17.0786 14.5509 17.0008 14.7721 17.0009 15V20H15.0009V15Z" fill="#64BC04"/>
</svg>
