<svg width="25" height="25" viewBox="0 0 25 25" fill="none" xmlns="http://www.w3.org/2000/svg">
<path d="M12.5007 7.29134C13.0759 7.29134 13.5423 6.82497 13.5423 6.24967C13.5423 5.67438 13.0759 5.20801 12.5007 5.20801C11.9254 5.20801 11.459 5.67438 11.459 6.24967C11.459 6.82497 11.9254 7.29134 12.5007 7.29134Z" fill="#64BC04"/>
<path d="M6.25 17.708H18.75V19.7913H6.25V17.708ZM10.4167 12.3226L13.325 15.233L17.4208 11.134L18.75 12.4997V8.33301H14.5833L15.9479 9.66113L13.324 12.2851L10.4167 9.37467L6.25 13.5413L7.72292 15.0143L10.4167 12.3226Z" fill="#64BC04"/>
<path d="M19.7923 3.1254H16.3569C16.2537 2.97202 16.1425 2.82424 16.0236 2.68269L16.0132 2.67019C15.2475 1.77912 14.1709 1.2136 13.0027 1.08894C12.6709 1.02634 12.3304 1.02634 11.9986 1.08894C10.8304 1.2136 9.75376 1.77912 8.98815 2.67019L8.97773 2.68269C8.85888 2.8239 8.74761 2.97133 8.6444 3.12436V3.1254H5.20898C4.38044 3.12622 3.58606 3.45573 3.00019 4.0416C2.41432 4.62747 2.08481 5.42185 2.08398 6.2504V20.8337C2.08481 21.6623 2.41432 22.4567 3.00019 23.0425C3.58606 23.6284 4.38044 23.9579 5.20898 23.9587H19.7923C20.6209 23.9579 21.4152 23.6284 22.0011 23.0425C22.587 22.4567 22.9165 21.6623 22.9173 20.8337V6.2504C22.9165 5.42185 22.587 4.62747 22.0011 4.0416C21.4152 3.45573 20.6209 3.12622 19.7923 3.1254ZM20.834 20.8337C20.834 21.11 20.7242 21.375 20.5289 21.5703C20.3335 21.7656 20.0686 21.8754 19.7923 21.8754H5.20898C4.93272 21.8754 4.66777 21.7656 4.47241 21.5703C4.27706 21.375 4.16732 21.11 4.16732 20.8337V6.2504C4.16732 5.97413 4.27706 5.70918 4.47241 5.51383C4.66777 5.31848 4.93272 5.20873 5.20898 5.20873H9.94857C10.0681 4.62004 10.3875 4.09077 10.8526 3.71062C11.3177 3.33046 11.8999 3.12279 12.5007 3.12279C13.1014 3.12279 13.6836 3.33046 14.1487 3.71062C14.6138 4.09077 14.9332 4.62004 15.0527 5.20873H19.7923C20.0686 5.20873 20.3335 5.31848 20.5289 5.51383C20.7242 5.70918 20.834 5.97413 20.834 6.2504V20.8337Z" fill="#64BC04"/>
</svg>
