<svg width="32" height="32" viewBox="0 0 32 32" fill="none" xmlns="http://www.w3.org/2000/svg">
<path d="M14.4004 24.4004C14.4004 23.87 14.6111 23.3612 14.9862 22.9862C15.3612 22.6111 15.87 22.4004 16.4004 22.4004C16.9308 22.4004 17.4395 22.6111 17.8146 22.9862C18.1897 23.3612 18.4004 23.87 18.4004 24.4004C18.4004 24.9308 18.1897 25.4395 17.8146 25.8146C17.4395 26.1897 16.9308 26.4004 16.4004 26.4004C15.87 26.4004 15.3612 26.1897 14.9862 25.8146C14.6111 25.4395 14.4004 24.9308 14.4004 24.4004ZM14.4004 16.4004C14.4004 15.87 14.6111 15.3612 14.9862 14.9862C15.3612 14.6111 15.87 14.4004 16.4004 14.4004C16.9308 14.4004 17.4395 14.6111 17.8146 14.9862C18.1897 15.3612 18.4004 15.87 18.4004 16.4004C18.4004 16.9308 18.1897 17.4395 17.8146 17.8146C17.4395 18.1897 16.9308 18.4004 16.4004 18.4004C15.87 18.4004 15.3612 18.1897 14.9862 17.8146C14.6111 17.4395 14.4004 16.9308 14.4004 16.4004ZM14.4004 8.40039C14.4004 7.86996 14.6111 7.36125 14.9862 6.98618C15.3612 6.6111 15.87 6.40039 16.4004 6.40039C16.9308 6.40039 17.4395 6.6111 17.8146 6.98618C18.1897 7.36125 18.4004 7.86996 18.4004 8.40039C18.4004 8.93082 18.1897 9.43953 17.8146 9.8146C17.4395 10.1897 16.9308 10.4004 16.4004 10.4004C15.87 10.4004 15.3612 10.1897 14.9862 9.8146C14.6111 9.43953 14.4004 8.93082 14.4004 8.40039Z" fill="black"/>
</svg>
